<svg xmlns="http://www.w3.org/2000/svg" xmlns:xlink="http://www.w3.org/1999/xlink" width="500" zoomAndPan="magnify" viewBox="0 0 375 374.999991" height="500" preserveAspectRatio="xMidYMid meet" version="1.0"><defs><clipPath id="b8dfb5b929"><path d="M 225 152 L 266 152 L 266 337.5 L 225 337.5 Z M 225 152 " clip-rule="nonzero"/></clipPath><clipPath id="5702e8f081"><path d="M 283 37.5 L 325 37.5 L 325 264 L 283 264 Z M 283 37.5 " clip-rule="nonzero"/></clipPath></defs><path fill="#dd390d" d="M 49.882812 212.265625 L 90.699219 222.558594 L 90.699219 119.824219 L 49.882812 109.535156 Z M 49.882812 212.265625 " fill-opacity="1" fill-rule="nonzero"/><path fill="#279b48" d="M 108.226562 181.394531 L 149.039062 191.6875 L 149.039062 78.664062 L 108.226562 68.371094 Z M 108.226562 181.394531 " fill-opacity="1" fill-rule="nonzero"/><path fill="#dd390d" d="M 166.65625 251.511719 L 207.472656 261.800781 L 207.472656 128.109375 L 166.65625 117.820312 Z M 166.65625 251.511719 " fill-opacity="1" fill-rule="nonzero"/><g clip-path="url(#b8dfb5b929)"><path fill="#dd390d" d="M 225.085938 327.296875 L 265.902344 337.585938 L 265.902344 162.734375 L 225.085938 152.441406 Z M 225.085938 327.296875 " fill-opacity="1" fill-rule="nonzero"/></g><g clip-path="url(#5702e8f081)"><path fill="#279b48" d="M 283.429688 37.414062 L 283.429688 253.429688 L 324.246094 263.722656 L 324.246094 47.703125 Z M 283.429688 37.414062 " fill-opacity="1" fill-rule="nonzero"/></g></svg>